<svg xmlns="http://www.w3.org/2000/svg" width="24" height="24" viewBox="0 0 24 24" fill="none" role="img">
  <!-- Background (Same as Logo Color) -->
  <rect width="24" height="24" rx="4" fill="#0077b5"/>

  <!-- LinkedIn "in" Logo (Always White) -->
  <path fill-rule="evenodd" clip-rule="evenodd" d="M8.259 6.37c0 .69-.56 1.25-1.25 1.25H7c-.69 0-1.25-.56-1.25-1.25 0-.69.56-1.25 1.25-1.25h.009c.69 0 1.25.56 1.25 1.25ZM7 8.5c.553 0 1 .448 1 1v7c0 .552-.447 1-1 1s-1-.448-1-1v-7c0-.552.447-1 1-1ZM11 8.5c.553 0 1 .448 1 1v.035C12.59 9.195 13.272 9 14.001 9c2.209 0 4 1.791 4 4v4c0 .552-.447 1-1 1s-1-.448-1-1v-4c0-1.105-.895-2-2-2-1.105 0-2 .895-2 2v4c0 .552-.447 1-1 1s-1-.448-1-1v-7c0-.552.447-1 1-1Z" fill="white"/>
</svg>
